<svg xmlns="http://www.w3.org/2000/svg" viewBox="0 0 100 100">
  <!-- Background Circle -->
  <circle cx="50" cy="50" r="45" fill="#1e3a8a" />
  
  <!-- Inner Circle -->
  <circle cx="50" cy="50" r="40" fill="none" stroke="#FFF" stroke-width="1.5" />
  
  <!-- Compass Rose / Universal Paths -->
  <g stroke="#FFF" stroke-width="2" fill="none">
    <!-- Horizontal line -->
    <line x1="10" y1="50" x2="90" y2="50" />
    <!-- Vertical line -->
    <line x1="50" y1="10" x2="50" y2="90" />
    <!-- Diagonal lines -->
    <line x1="20" y1="20" x2="80" y2="80" />
    <line x1="20" y1="80" x2="80" y2="20" />
  </g>
  
  <!-- Central Star -->
  <circle cx="50" cy="50" r="8" fill="#FFF" />
  <circle cx="50" cy="50" r="4" fill="#fbbf24" />
  
  <!-- Small Dots at Line Ends -->
  <g fill="#fbbf24">
    <circle cx="10" cy="50" r="2" />
    <circle cx="90" cy="50" r="2" />
    <circle cx="50" cy="10" r="2" />
    <circle cx="50" cy="90" r="2" />
    <circle cx="20" cy="20" r="2" />
    <circle cx="80" cy="80" r="2" />
    <circle cx="20" cy="80" r="2" />
    <circle cx="80" cy="20" r="2" />
  </g>
  
  <!-- Russian-style Ornament Around Edge -->
  <path d="M50,5 
           A45,45 0 0,1 95,50 
           A45,45 0 0,1 50,95 
           A45,45 0 0,1 5,50 
           A45,45 0 0,1 50,5 Z" 
        fill="none" 
        stroke="#e11d48" 
        stroke-width="1.5"
        stroke-dasharray="4 2" />
</svg>